<svg id="Capa_1" data-name="Capa 1" xmlns="http://www.w3.org/2000/svg" viewBox="0 0 422.69 512"><defs><style>.cls-1{fill:#fff;}</style></defs><title>logo</title><path class="cls-1" d="M342.91,0V10q0,137.13-.18,274.27c0,6.84,2.12,10.3,8.26,13.24,22.34,10.7,44.45,21.9,66.45,33.27,2.38,1.23,5,4.83,5,7.34.28,56.65.22,113.3.2,170,0,1.16-.21,2.33-.35,3.89H398.15V503.2c0-49.12-.08-98.23.13-147.35,0-5.34-1.49-8.25-6.43-10.58-14.28-6.73-28.28-14-42.42-21.09-1.65-.83-3.46-1.35-6.41-2.48V512H239.61V241.69l78.23,39V46.14c-8,5.28-15.32,10-22.51,14.78Q203.73,122,112.06,183c-5.8,3.84-7.86,7.83-7.75,14.69.43,24.79.17,49.6.17,74.4v8.82l78.87-39.24V512H80.12V321.33c-3.69,1.63-6.05,2.57-8.31,3.7-13.71,6.81-27.3,13.86-41.14,20.4-4.63,2.19-6.15,4.93-6.13,10,.19,49.35.11,98.71.11,148.07v8.38H.48c-.12-2.38-.35-4.73-.35-7.07C.11,449.88.18,394.93,0,340c0-5.09,1.5-7.69,6.17-10,22.51-10.9,44.76-22.36,67.23-33.34,4.77-2.33,6.68-5.11,6.64-10.57q-.36-52.51.06-105c0-3,1.75-7.26,4.1-8.83q126-84.45,252.25-168.4C338,2.79,339.71,1.89,342.91,0ZM159.28,281.26c-18.57,9.27-35.51,17.6-52.25,26.3-1.5.78-2.44,4-2.44,6.12-.13,55.87,0,111.74-.21,167.61,0,5.33,2,6.56,6.8,6.47,13.36-.24,26.74-.39,40.08.06,6.41.22,8.17-1.7,8.15-8.18-.24-62.67-.13-125.34-.13-188Zm104.24,0v11q0,55,0,110.05c0,26.23.07,52.47-.06,78.71,0,4.28.58,6.84,5.8,6.75,14.57-.25,29.15-.2,43.73,0,4.2,0,5.38-1.63,5.38-5.63-.09-56.36,0-112.71-.16-169.07,0-1.87-1-4.73-2.37-5.45C299.09,298.91,282.16,290.55,263.52,281.25Z"/></svg>